<svg width="304" height="56" viewBox="0 0 304 56" fill="none" xmlns="http://www.w3.org/2000/svg">
<path d="M56.56 9.41V8.6H62.29V9.41L60.64 9.56C60.32 9.6 60.13 9.68 60.07 9.8C60.01 9.92 59.98 10.33 59.98 11.03V22.07C59.98 24.35 59.45 26.13 58.39 27.41C57.35 28.67 55.75 29.3 53.59 29.3C51.23 29.3 49.42 28.61 48.16 27.23C46.92 25.85 46.3 23.95 46.3 21.53V11.03C46.3 10.33 46.27 9.92 46.21 9.8C46.15 9.68 45.96 9.6 45.64 9.56L43.99 9.41V8.6H51.22V9.41L49.57 9.56C49.25 9.6 49.06 9.68 49 9.8C48.94 9.92 48.91 10.33 48.91 11.03V21.98C48.91 24.12 49.31 25.71 50.11 26.75C50.93 27.79 52.17 28.31 53.83 28.31C55.51 28.31 56.77 27.78 57.61 26.72C58.45 25.66 58.87 24.12 58.87 22.1V11.03C58.87 10.33 58.84 9.92 58.78 9.8C58.72 9.68 58.53 9.6 58.21 9.56L56.56 9.41ZM80.5954 28.22V29H73.5154V28.22L75.1654 28.04C75.4854 28 75.6754 27.92 75.7354 27.8C75.7954 27.68 75.8254 27.27 75.8254 26.57V19.1C75.8254 17.62 75.5854 16.58 75.1054 15.98C74.6254 15.36 73.9354 15.05 73.0354 15.05C72.3754 15.05 71.6454 15.25 70.8454 15.65C70.0454 16.05 69.2954 16.83 68.5954 17.99V26.57C68.5954 27.27 68.6254 27.68 68.6854 27.8C68.7454 27.92 68.9354 28 69.2554 28.04L70.9054 28.22V29H63.8254V28.22L65.4754 28.04C65.7954 28 65.9854 27.92 66.0454 27.8C66.1054 27.68 66.1354 27.27 66.1354 26.57V16.58C66.1354 15.88 66.1054 15.47 66.0454 15.35C65.9854 15.23 65.7954 15.15 65.4754 15.11L63.8254 14.96V14.15H68.4454V16.58C69.1654 15.62 69.9754 14.93 70.8754 14.51C71.7954 14.07 72.7154 13.85 73.6354 13.85C75.1154 13.85 76.2554 14.31 77.0554 15.23C77.8754 16.13 78.2854 17.41 78.2854 19.07V26.57C78.2854 27.27 78.3154 27.68 78.3754 27.8C78.4354 27.92 78.6254 28 78.9454 28.04L80.5954 28.22ZM82.131 7.61V6.8H86.901V26.57C86.901 27.27 86.931 27.68 86.991 27.8C87.051 27.92 87.241 28 87.561 28.04L89.211 28.22V29H82.131V28.22L83.781 28.04C84.101 28 84.291 27.92 84.351 27.8C84.411 27.68 84.441 27.27 84.441 26.57V9.23C84.441 8.53 84.411 8.12 84.351 8C84.291 7.88 84.101 7.8 83.781 7.76L82.131 7.61ZM94.6401 10.79C94.1601 10.79 93.7601 10.64 93.4401 10.34C93.1401 10.02 92.9901 9.61 92.9901 9.11C92.9901 8.63 93.1401 8.24 93.4401 7.94C93.7601 7.64 94.1601 7.49 94.6401 7.49C95.1201 7.49 95.5101 7.64 95.8101 7.94C96.1301 8.24 96.2901 8.63 96.2901 9.11C96.2901 9.61 96.1301 10.02 95.8101 10.34C95.5101 10.64 95.1201 10.79 94.6401 10.79ZM91.1301 14.96V14.15H95.9001V26.57C95.9001 27.27 95.9301 27.68 95.9901 27.8C96.0501 27.92 96.2401 28 96.5601 28.04L98.2101 28.22V29H91.1301V28.22L92.7801 28.04C93.1001 28 93.2901 27.92 93.3501 27.8C93.4101 27.68 93.4401 27.27 93.4401 26.57V16.58C93.4401 15.88 93.4101 15.47 93.3501 15.35C93.2901 15.23 93.1001 15.15 92.7801 15.11L91.1301 14.96ZM116.565 28.22V29H109.485V28.22L111.135 28.04C111.455 28 111.645 27.92 111.705 27.8C111.765 27.68 111.795 27.27 111.795 26.57V19.1C111.795 17.62 111.565 16.58 111.105 15.98C110.665 15.36 110.015 15.05 109.155 15.05C108.535 15.05 107.835 15.25 107.055 15.65C106.295 16.05 105.565 16.82 104.865 17.96V26.57C104.865 27.27 104.895 27.68 104.955 27.8C105.015 27.92 105.205 28 105.525 28.04L107.175 28.22V29H100.095V28.22L101.745 28.04C102.065 28 102.255 27.92 102.315 27.8C102.375 27.68 102.405 27.27 102.405 26.57V16.58C102.405 15.88 102.375 15.47 102.315 15.35C102.255 15.23 102.065 15.15 101.745 15.11L100.095 14.96V14.15H104.715V16.58C105.415 15.64 106.205 14.95 107.085 14.51C107.985 14.07 108.875 13.85 109.755 13.85C111.915 13.85 113.305 14.84 113.925 16.82C114.665 15.78 115.485 15.03 116.385 14.57C117.305 14.09 118.225 13.85 119.145 13.85C120.565 13.85 121.665 14.31 122.445 15.23C123.245 16.13 123.645 17.41 123.645 19.07V26.57C123.645 27.27 123.675 27.68 123.735 27.8C123.795 27.92 123.985 28 124.305 28.04L125.955 28.22V29H118.875V28.22L120.525 28.04C120.845 28 121.035 27.92 121.095 27.8C121.155 27.68 121.185 27.27 121.185 26.57V19.1C121.185 17.62 120.955 16.58 120.495 15.98C120.055 15.36 119.405 15.05 118.545 15.05C117.925 15.05 117.215 15.26 116.415 15.68C115.635 16.08 114.895 16.87 114.195 18.05C114.215 18.21 114.225 18.38 114.225 18.56C114.245 18.72 114.255 18.89 114.255 19.07V26.57C114.255 27.27 114.285 27.68 114.345 27.8C114.405 27.92 114.595 28 114.915 28.04L116.565 28.22ZM131.203 10.79C130.723 10.79 130.323 10.64 130.003 10.34C129.703 10.02 129.553 9.61 129.553 9.11C129.553 8.63 129.703 8.24 130.003 7.94C130.323 7.64 130.723 7.49 131.203 7.49C131.683 7.49 132.073 7.64 132.373 7.94C132.693 8.24 132.853 8.63 132.853 9.11C132.853 9.61 132.693 10.02 132.373 10.34C132.073 10.64 131.683 10.79 131.203 10.79ZM127.693 14.96V14.15H132.463V26.57C132.463 27.27 132.493 27.68 132.553 27.8C132.613 27.92 132.803 28 133.123 28.04L134.773 28.22V29H127.693V28.22L129.343 28.04C129.663 28 129.853 27.92 129.913 27.8C129.973 27.68 130.003 27.27 130.003 26.57V16.58C130.003 15.88 129.973 15.47 129.913 15.35C129.853 15.23 129.663 15.15 129.343 15.11L127.693 14.96ZM146.557 25.94C146.257 27.1 145.787 27.95 145.147 28.49C144.507 29.03 143.687 29.3 142.687 29.3C141.727 29.3 140.947 29.09 140.347 28.67C139.747 28.23 139.307 27.66 139.027 26.96C138.747 26.26 138.607 25.53 138.607 24.77V16.58C138.607 15.88 138.577 15.47 138.517 15.35C138.477 15.23 138.287 15.15 137.947 15.11L136.297 14.96V14.15H138.607V10.22L141.067 9.71V14.15H145.957V15.11H141.067V25.01C141.067 26.27 141.237 27.14 141.577 27.62C141.937 28.1 142.407 28.34 142.987 28.34C143.567 28.34 144.007 28.12 144.307 27.68C144.627 27.24 144.857 26.52 144.997 25.52L146.557 25.94ZM161.039 25.58C160.679 26.94 159.999 27.9 158.999 28.46C158.019 29.02 156.929 29.3 155.729 29.3C153.509 29.3 151.849 28.63 150.749 27.29C149.649 25.93 149.099 24.12 149.099 21.86V21.26C149.099 19.02 149.629 17.23 150.689 15.89C151.749 14.53 153.289 13.85 155.309 13.85C156.389 13.85 157.369 14.07 158.249 14.51C159.149 14.95 159.859 15.6 160.379 16.46C160.919 17.32 161.189 18.39 161.189 19.67C161.189 20.27 161.129 20.9 161.009 21.56H151.799V22.46C151.799 24.56 152.119 26.07 152.759 26.99C153.419 27.89 154.479 28.34 155.939 28.34C156.859 28.34 157.619 28.1 158.219 27.62C158.839 27.14 159.249 26.31 159.449 25.13L161.039 25.58ZM155.309 14.81C154.129 14.81 153.249 15.26 152.669 16.16C152.089 17.06 151.799 18.54 151.799 20.6H158.549V20.51C158.589 20.25 158.619 20 158.639 19.76C158.659 19.5 158.669 19.27 158.669 19.07C158.669 17.57 158.359 16.49 157.739 15.83C157.119 15.15 156.309 14.81 155.309 14.81ZM179.531 28.25V29H174.911V26.63C174.291 27.55 173.601 28.23 172.841 28.67C172.101 29.09 171.271 29.3 170.351 29.3C168.631 29.3 167.291 28.66 166.331 27.38C165.391 26.08 164.921 24.25 164.921 21.89V21.29C164.921 19.03 165.471 17.23 166.571 15.89C167.691 14.53 169.221 13.85 171.161 13.85C172.581 13.85 173.781 14.29 174.761 15.17V9.23C174.761 8.53 174.731 8.12 174.671 8C174.611 7.88 174.421 7.8 174.101 7.76L172.451 7.61V6.8H177.221V26.57C177.221 27.27 177.251 27.68 177.311 27.8C177.371 27.92 177.561 28 177.881 28.04L179.531 28.25ZM167.621 22.79C167.621 24.67 167.891 26.05 168.431 26.93C168.991 27.81 169.761 28.25 170.741 28.25C171.381 28.25 172.041 28.05 172.721 27.65C173.401 27.25 174.081 26.44 174.761 25.22V16.64C173.881 15.46 172.731 14.87 171.311 14.87C170.031 14.87 169.091 15.36 168.491 16.34C167.911 17.32 167.621 18.67 167.621 20.39V22.79ZM187.56 8.6H203.52V13.49H202.74L201.87 10.34C201.81 10.1 201.74 9.93 201.66 9.83C201.6 9.71 201.47 9.64 201.27 9.62C201.07 9.58 200.73 9.56 200.25 9.56H196.86V26.57C196.86 27.27 196.89 27.68 196.95 27.8C197.01 27.92 197.2 28 197.52 28.04L199.17 28.22V29H191.94V28.22L193.59 28.04C193.91 28 194.1 27.92 194.16 27.8C194.22 27.68 194.25 27.27 194.25 26.57V9.56H190.83C190.37 9.56 190.03 9.58 189.81 9.62C189.61 9.64 189.47 9.71 189.39 9.83C189.33 9.93 189.27 10.1 189.21 10.34L188.34 13.49H187.56V8.6ZM217.577 21.26V21.86C217.577 24.12 217.007 25.93 215.867 27.29C214.747 28.63 213.147 29.3 211.067 29.3C209.007 29.3 207.407 28.63 206.267 27.29C205.147 25.93 204.587 24.12 204.587 21.86V21.26C204.587 19.02 205.147 17.23 206.267 15.89C207.387 14.53 208.987 13.85 211.067 13.85C213.147 13.85 214.747 14.53 215.867 15.89C217.007 17.23 217.577 19.02 217.577 21.26ZM214.877 20.66C214.877 18.58 214.547 17.09 213.887 16.19C213.247 15.27 212.307 14.81 211.067 14.81C209.847 14.81 208.907 15.27 208.247 16.19C207.607 17.09 207.287 18.58 207.287 20.66V22.46C207.287 24.56 207.607 26.07 208.247 26.99C208.907 27.89 209.847 28.34 211.067 28.34C212.307 28.34 213.247 27.89 213.887 26.99C214.547 26.07 214.877 24.56 214.877 22.46V20.66ZM234.276 21.26V21.86C234.276 24.12 233.706 25.93 232.566 27.29C231.446 28.63 229.846 29.3 227.766 29.3C225.706 29.3 224.106 28.63 222.966 27.29C221.846 25.93 221.286 24.12 221.286 21.86V21.26C221.286 19.02 221.846 17.23 222.966 15.89C224.086 14.53 225.686 13.85 227.766 13.85C229.846 13.85 231.446 14.53 232.566 15.89C233.706 17.23 234.276 19.02 234.276 21.26ZM231.576 20.66C231.576 18.58 231.246 17.09 230.586 16.19C229.946 15.27 229.006 14.81 227.766 14.81C226.546 14.81 225.606 15.27 224.946 16.19C224.306 17.09 223.986 18.58 223.986 20.66V22.46C223.986 24.56 224.306 26.07 224.946 26.99C225.606 27.89 226.546 28.34 227.766 28.34C229.006 28.34 229.946 27.89 230.586 26.99C231.246 26.07 231.576 24.56 231.576 22.46V20.66ZM236.965 7.61V6.8H241.735V26.57C241.735 27.27 241.765 27.68 241.825 27.8C241.885 27.92 242.075 28 242.395 28.04L244.045 28.22V29H236.965V28.22L238.615 28.04C238.935 28 239.125 27.92 239.185 27.8C239.245 27.68 239.275 27.27 239.275 26.57V9.23C239.275 8.53 239.245 8.12 239.185 8C239.125 7.88 238.935 7.8 238.615 7.76L236.965 7.61ZM252.294 22.94L250.464 22.49C247.964 21.85 246.714 20.41 246.714 18.17C246.714 17.43 246.884 16.73 247.224 16.07C247.564 15.41 248.104 14.88 248.844 14.48C249.604 14.06 250.574 13.85 251.754 13.85C253.074 13.85 254.134 14.07 254.934 14.51C255.734 14.95 256.294 15.52 256.614 16.22C256.934 16.92 257.034 17.68 256.914 18.5L254.574 18.92C254.814 17.62 254.674 16.61 254.154 15.89C253.654 15.17 252.824 14.81 251.664 14.81C250.764 14.81 250.044 15.04 249.504 15.5C248.964 15.94 248.694 16.59 248.694 17.45C248.694 18.09 248.894 18.66 249.294 19.16C249.694 19.64 250.364 20 251.304 20.24L253.194 20.69C254.514 21.01 255.534 21.52 256.254 22.22C256.994 22.92 257.364 23.84 257.364 24.98C257.364 26.26 256.894 27.3 255.954 28.1C255.034 28.9 253.714 29.3 251.994 29.3C251.174 29.3 250.374 29.18 249.594 28.94C248.834 28.68 248.164 28.28 247.584 27.74C247.024 27.18 246.614 26.46 246.354 25.58L248.034 24.98C248.254 26.24 248.734 27.12 249.474 27.62C250.214 28.12 251.064 28.37 252.024 28.37C252.584 28.37 253.114 28.28 253.614 28.1C254.134 27.92 254.554 27.64 254.874 27.26C255.194 26.86 255.354 26.35 255.354 25.73C255.354 25.09 255.134 24.54 254.694 24.08C254.254 23.62 253.454 23.24 252.294 22.94Z" fill="black"/>
<path d="M0.221 40.44H9.265V43.211H8.823L8.33 41.426C8.296 41.29 8.25633 41.1937 8.211 41.137C8.177 41.069 8.10333 41.0293 7.99 41.018C7.87667 40.9953 7.684 40.984 7.412 40.984H5.491V50.623C5.491 51.0197 5.508 51.252 5.542 51.32C5.576 51.388 5.68367 51.4333 5.865 51.456L6.8 51.558V52H2.703V51.558L3.638 51.456C3.81933 51.4333 3.927 51.388 3.961 51.32C3.995 51.252 4.012 51.0197 4.012 50.623V40.984H2.074C1.81333 40.984 1.62067 40.9953 1.496 41.018C1.38267 41.0293 1.30333 41.069 1.258 41.137C1.224 41.1937 1.19 41.29 1.156 41.426L0.663 43.211H0.221V40.44ZM17.2304 47.614V47.954C17.2304 49.2347 16.9074 50.2603 16.2614 51.031C15.6268 51.7903 14.7201 52.17 13.5414 52.17C12.3741 52.17 11.4674 51.7903 10.8214 51.031C10.1868 50.2603 9.86943 49.2347 9.86943 47.954V47.614C9.86943 46.3447 10.1868 45.3303 10.8214 44.571C11.4561 43.8003 12.3628 43.415 13.5414 43.415C14.7201 43.415 15.6268 43.8003 16.2614 44.571C16.9074 45.3303 17.2304 46.3447 17.2304 47.614ZM15.7004 47.274C15.7004 46.0953 15.5134 45.251 15.1394 44.741C14.7768 44.2197 14.2441 43.959 13.5414 43.959C12.8501 43.959 12.3174 44.2197 11.9434 44.741C11.5808 45.251 11.3994 46.0953 11.3994 47.274V48.294C11.3994 49.484 11.5808 50.3397 11.9434 50.861C12.3174 51.371 12.8501 51.626 13.5414 51.626C14.2441 51.626 14.7768 51.371 15.1394 50.861C15.5134 50.3397 15.7004 49.484 15.7004 48.294V47.274ZM26.6933 47.614V47.954C26.6933 49.2347 26.3703 50.2603 25.7243 51.031C25.0897 51.7903 24.183 52.17 23.0043 52.17C21.837 52.17 20.9303 51.7903 20.2843 51.031C19.6497 50.2603 19.3323 49.2347 19.3323 47.954V47.614C19.3323 46.3447 19.6497 45.3303 20.2843 44.571C20.919 43.8003 21.8257 43.415 23.0043 43.415C24.183 43.415 25.0897 43.8003 25.7243 44.571C26.3703 45.3303 26.6933 46.3447 26.6933 47.614ZM25.1633 47.274C25.1633 46.0953 24.9763 45.251 24.6023 44.741C24.2397 44.2197 23.707 43.959 23.0043 43.959C22.313 43.959 21.7803 44.2197 21.4063 44.741C21.0437 45.251 20.8623 46.0953 20.8623 47.274V48.294C20.8623 49.484 21.0437 50.3397 21.4063 50.861C21.7803 51.371 22.313 51.626 23.0043 51.626C23.707 51.626 24.2397 51.371 24.6023 50.861C24.9763 50.3397 25.1633 49.484 25.1633 48.294V47.274ZM28.2172 39.879V39.42H30.9202V50.623C30.9202 51.0197 30.9372 51.252 30.9712 51.32C31.0052 51.388 31.1129 51.4333 31.2942 51.456L32.2292 51.558V52H28.2172V51.558L29.1522 51.456C29.3335 51.4333 29.4412 51.388 29.4752 51.32C29.5092 51.252 29.5262 51.0197 29.5262 50.623V40.797C29.5262 40.4003 29.5092 40.168 29.4752 40.1C29.4412 40.032 29.3335 39.9867 29.1522 39.964L28.2172 39.879ZM36.9037 48.566L35.8667 48.311C34.45 47.9483 33.7417 47.1323 33.7417 45.863C33.7417 45.4437 33.838 45.047 34.0307 44.673C34.2233 44.299 34.5293 43.9987 34.9487 43.772C35.3793 43.534 35.929 43.415 36.5977 43.415C37.3457 43.415 37.9463 43.5397 38.3997 43.789C38.853 44.0383 39.1703 44.3613 39.3517 44.758C39.533 45.1547 39.5897 45.5853 39.5217 46.05L38.1957 46.288C38.3317 45.5513 38.2523 44.979 37.9577 44.571C37.6743 44.163 37.204 43.959 36.5467 43.959C36.0367 43.959 35.6287 44.0893 35.3227 44.35C35.0167 44.5993 34.8637 44.9677 34.8637 45.455C34.8637 45.8177 34.977 46.1407 35.2037 46.424C35.4303 46.696 35.81 46.9 36.3427 47.036L37.4137 47.291C38.1617 47.4723 38.7397 47.7613 39.1477 48.158C39.567 48.5547 39.7767 49.076 39.7767 49.722C39.7767 50.4473 39.5103 51.0367 38.9777 51.49C38.4563 51.9433 37.7083 52.17 36.7337 52.17C36.269 52.17 35.8157 52.102 35.3737 51.966C34.943 51.8187 34.5633 51.592 34.2347 51.286C33.9173 50.9687 33.685 50.5607 33.5377 50.062L34.4897 49.722C34.6143 50.436 34.8863 50.9347 35.3057 51.218C35.725 51.5013 36.2067 51.643 36.7507 51.643C37.068 51.643 37.3683 51.592 37.6517 51.49C37.9463 51.388 38.1843 51.2293 38.3657 51.014C38.547 50.7873 38.6377 50.4983 38.6377 50.147C38.6377 49.7843 38.513 49.4727 38.2637 49.212C38.0143 48.9513 37.561 48.736 36.9037 48.566ZM43.8018 51.439C43.8018 51.949 43.6318 52.544 43.2918 53.224C42.9632 53.904 42.5042 54.5897 41.9148 55.281L41.5408 54.975C42.0055 54.4083 42.3398 53.887 42.5438 53.411C42.7478 52.9463 42.8612 52.5327 42.8838 52.17H42.8668C42.5948 52.17 42.3738 52.085 42.2038 51.915C42.0338 51.745 41.9488 51.524 41.9488 51.252C41.9488 50.98 42.0338 50.759 42.2038 50.589C42.3738 50.419 42.5948 50.334 42.8668 50.334C43.1388 50.334 43.3598 50.4303 43.5298 50.623C43.7112 50.8043 43.8018 51.0763 43.8018 51.439ZM53.4982 51.626C54.2575 51.626 54.8695 51.439 55.3342 51.065C55.8102 50.691 56.0482 50.1413 56.0482 49.416C56.0482 48.838 55.8725 48.3563 55.5212 47.971C55.1699 47.5743 54.5579 47.257 53.6852 47.019L52.5122 46.679C51.6509 46.441 50.9935 46.0387 50.5402 45.472C50.0869 44.9053 49.8602 44.214 49.8602 43.398C49.8602 42.854 49.9849 42.344 50.2342 41.868C50.4949 41.392 50.8859 41.0067 51.4072 40.712C51.9399 40.4173 52.6142 40.27 53.4302 40.27C54.3369 40.27 55.0679 40.44 55.6232 40.78C56.1785 41.1087 56.5639 41.5393 56.7792 42.072C56.9945 42.6047 57.0455 43.177 56.9322 43.789L55.5042 44.095C55.6515 43.041 55.5439 42.2307 55.1812 41.664C54.8299 41.0973 54.2179 40.814 53.3452 40.814C52.6539 40.814 52.1099 41.001 51.7132 41.375C51.3165 41.7377 51.1182 42.2703 51.1182 42.973C51.1182 43.5283 51.2769 44.0043 51.5942 44.401C51.9115 44.7863 52.4725 45.0923 53.2772 45.319L54.4502 45.659C56.3429 46.1803 57.2892 47.2853 57.2892 48.974C57.2892 49.5747 57.1475 50.1187 56.8642 50.606C56.5922 51.082 56.1729 51.4617 55.6062 51.745C55.0509 52.0283 54.3482 52.17 53.4982 52.17C52.9089 52.17 52.3422 52.0793 51.7982 51.898C51.2655 51.7167 50.8065 51.405 50.4212 50.963C50.0472 50.521 49.7979 49.909 49.6732 49.127L50.6932 48.787C50.7499 49.535 50.9142 50.113 51.1862 50.521C51.4582 50.929 51.7982 51.218 52.2062 51.388C52.6142 51.5467 53.0449 51.626 53.4982 51.626ZM66.0587 50.062C65.8547 50.8327 65.4693 51.3767 64.9027 51.694C64.3473 52.0113 63.7297 52.17 63.0497 52.17C61.7917 52.17 60.851 51.7903 60.2277 51.031C59.6043 50.2603 59.2927 49.2347 59.2927 47.954V47.614C59.2927 46.3447 59.593 45.3303 60.1937 44.571C60.7943 43.8003 61.667 43.415 62.8117 43.415C63.4237 43.415 63.979 43.5397 64.4777 43.789C64.9877 44.0383 65.39 44.4067 65.6847 44.894C65.9907 45.3813 66.1437 45.9877 66.1437 46.713C66.1437 47.053 66.1097 47.41 66.0417 47.784H60.8227V48.294C60.8227 49.484 61.004 50.3397 61.3667 50.861C61.7407 51.371 62.3413 51.626 63.1687 51.626C63.69 51.626 64.1207 51.49 64.4607 51.218C64.812 50.946 65.0443 50.4757 65.1577 49.807L66.0587 50.062ZM62.8117 43.959C62.143 43.959 61.6443 44.214 61.3157 44.724C60.987 45.234 60.8227 46.0727 60.8227 47.24H64.6477V47.189C64.6703 47.0417 64.6873 46.9 64.6987 46.764C64.71 46.6167 64.7157 46.4863 64.7157 46.373C64.7157 45.523 64.54 44.911 64.1887 44.537C63.8373 44.1517 63.3783 43.959 62.8117 43.959ZM71.7263 43.959C71.103 43.959 70.6157 44.2197 70.2643 44.741C69.9243 45.251 69.7543 46.0953 69.7543 47.274V48.294C69.7543 49.484 69.9243 50.3397 70.2643 50.861C70.6157 51.371 71.1823 51.626 71.9643 51.626C72.497 51.626 72.9277 51.49 73.2563 51.218C73.585 50.946 73.806 50.4757 73.9193 49.807L74.8203 50.062C74.6163 50.8327 74.2423 51.3767 73.6983 51.694C73.1543 52.0113 72.548 52.17 71.8793 52.17C70.6553 52.17 69.7373 51.7903 69.1253 51.031C68.5247 50.2603 68.2243 49.2347 68.2243 47.954V47.614C68.2243 46.3447 68.5247 45.3303 69.1253 44.571C69.726 43.8003 70.593 43.415 71.7263 43.415C72.4517 43.415 73.0523 43.5567 73.5283 43.84C74.0157 44.1233 74.3613 44.5087 74.5653 44.996C74.7693 45.472 74.826 45.999 74.7353 46.577L73.3923 46.781C73.517 45.8743 73.432 45.1773 73.1373 44.69C72.854 44.2027 72.3837 43.959 71.7263 43.959ZM85.3765 51.558V52H82.7585V50.64C82.3619 51.1727 81.9085 51.5637 81.3985 51.813C80.8999 52.051 80.4012 52.17 79.9025 52.17C79.0979 52.17 78.4689 51.915 78.0155 51.405C77.5735 50.8837 77.3525 50.1527 77.3525 49.212V44.962C77.3525 44.5653 77.3355 44.333 77.3015 44.265C77.2675 44.197 77.1599 44.1517 76.9785 44.129L76.0435 44.044V43.585H78.7465V49.195C78.7465 50.0337 78.8712 50.6287 79.1205 50.98C79.3812 51.32 79.7552 51.49 80.2425 51.49C80.6052 51.49 81.0019 51.3767 81.4325 51.15C81.8745 50.9233 82.2882 50.487 82.6735 49.841V44.962C82.6735 44.5653 82.6565 44.333 82.6225 44.265C82.5885 44.1857 82.4809 44.1403 82.2995 44.129L81.0245 44.044V43.585H84.0675V50.623C84.0675 51.0197 84.0845 51.252 84.1185 51.32C84.1525 51.388 84.2602 51.4333 84.4415 51.456L85.3765 51.558ZM86.4583 44.044V43.585H89.0763V44.945C89.4729 44.4123 89.8696 44.027 90.2663 43.789C90.6743 43.5397 91.0879 43.415 91.5073 43.415C91.8699 43.415 92.2099 43.5227 92.5273 43.738C92.8446 43.9533 93.1109 44.299 93.3263 44.775L92.2213 45.438C92.0513 45.03 91.8586 44.7467 91.6433 44.588C91.4279 44.4293 91.1899 44.35 90.9293 44.35C90.6459 44.35 90.3626 44.4407 90.0793 44.622C89.8073 44.8033 89.5013 45.1433 89.1613 45.642V50.623C89.1613 51.0197 89.1783 51.2577 89.2123 51.337C89.2463 51.405 89.3539 51.4447 89.5353 51.456L90.8103 51.558V52H86.4583V51.558L87.3933 51.456C87.5746 51.4333 87.6823 51.388 87.7163 51.32C87.7503 51.252 87.7673 51.0197 87.7673 50.623V44.962C87.7673 44.5653 87.7503 44.333 87.7163 44.265C87.6823 44.197 87.5746 44.1517 87.3933 44.129L86.4583 44.044ZM95.918 41.681C95.646 41.681 95.4193 41.596 95.238 41.426C95.068 41.2447 94.983 41.0123 94.983 40.729C94.983 40.457 95.068 40.236 95.238 40.066C95.4193 39.896 95.646 39.811 95.918 39.811C96.19 39.811 96.411 39.896 96.581 40.066C96.7623 40.236 96.853 40.457 96.853 40.729C96.853 41.0123 96.7623 41.2447 96.581 41.426C96.411 41.596 96.19 41.681 95.918 41.681ZM93.929 44.044V43.585H96.632V50.623C96.632 51.0197 96.649 51.252 96.683 51.32C96.717 51.388 96.8247 51.4333 97.006 51.456L97.941 51.558V52H93.929V51.558L94.864 51.456C95.0453 51.4333 95.153 51.388 95.187 51.32C95.221 51.252 95.238 51.0197 95.238 50.623V44.962C95.238 44.5653 95.221 44.333 95.187 44.265C95.153 44.197 95.0453 44.1517 94.864 44.129L93.929 44.044ZM104.619 50.266C104.449 50.9233 104.183 51.405 103.82 51.711C103.457 52.017 102.993 52.17 102.426 52.17C101.882 52.17 101.44 52.051 101.1 51.813C100.76 51.5637 100.511 51.2407 100.352 50.844C100.193 50.4473 100.114 50.0337 100.114 49.603V44.962C100.114 44.5653 100.097 44.333 100.063 44.265C100.04 44.197 99.9327 44.1517 99.7401 44.129L98.8051 44.044V43.585H100.114V41.358L101.508 41.069V43.585H104.279V44.129H101.508V49.739C101.508 50.453 101.604 50.946 101.797 51.218C102.001 51.49 102.267 51.626 102.596 51.626C102.925 51.626 103.174 51.5013 103.344 51.252C103.525 51.0027 103.656 50.5947 103.735 50.028L104.619 50.266ZM109.748 52.85C109.499 53.5413 109.227 54.1023 108.932 54.533C108.638 54.975 108.286 55.2923 107.878 55.485C107.47 55.689 106.96 55.791 106.348 55.791V54.431C107.164 54.431 107.782 54.3007 108.201 54.04C108.621 53.7907 108.955 53.3203 109.204 52.629L109.425 52H108.932L106.433 44.86C106.32 44.5313 106.235 44.3387 106.178 44.282C106.122 44.214 106.003 44.1687 105.821 44.146L104.954 44.044V43.585H108.83V44.044L107.963 44.146C107.805 44.1573 107.714 44.197 107.691 44.265C107.669 44.333 107.714 44.5313 107.827 44.86L109.867 50.742L111.924 44.843C112.026 44.5143 112.066 44.3217 112.043 44.265C112.032 44.2083 111.941 44.1687 111.771 44.146L110.887 44.044V43.585H113.998V44.044L113.131 44.146C112.961 44.1687 112.848 44.2083 112.791 44.265C112.735 44.3217 112.65 44.5143 112.536 44.843L109.748 52.85ZM115.886 51.439C115.886 51.949 115.716 52.544 115.376 53.224C115.047 53.904 114.588 54.5897 113.999 55.281L113.625 54.975C114.089 54.4083 114.424 53.887 114.628 53.411C114.832 52.9463 114.945 52.5327 114.968 52.17H114.951C114.679 52.17 114.458 52.085 114.288 51.915C114.118 51.745 114.033 51.524 114.033 51.252C114.033 50.98 114.118 50.759 114.288 50.589C114.458 50.419 114.679 50.334 114.951 50.334C115.223 50.334 115.444 50.4303 115.614 50.623C115.795 50.8043 115.886 51.0763 115.886 51.439ZM126.67 52.17C125.231 52.17 124.132 51.6883 123.372 50.725C122.624 49.7617 122.25 48.4697 122.25 46.849V45.574C122.25 44.5087 122.409 43.5793 122.726 42.786C123.055 41.9927 123.537 41.375 124.171 40.933C124.806 40.491 125.582 40.27 126.5 40.27C127.35 40.27 128.053 40.44 128.608 40.78C129.164 41.1087 129.566 41.545 129.815 42.089C130.065 42.6217 130.144 43.2053 130.053 43.84L128.591 44.197C128.716 43.109 128.591 42.276 128.217 41.698C127.843 41.1087 127.271 40.814 126.5 40.814C125.639 40.814 124.982 41.12 124.528 41.732C124.086 42.344 123.865 43.3413 123.865 44.724V47.699C123.865 49.093 124.103 50.096 124.579 50.708C125.055 51.32 125.764 51.626 126.704 51.626C127.078 51.626 127.435 51.5637 127.775 51.439C128.115 51.303 128.404 51.0763 128.642 50.759C128.88 50.4417 129.028 49.9997 129.084 49.433L130.138 49.705C129.889 50.6117 129.447 51.252 128.812 51.626C128.189 51.9887 127.475 52.17 126.67 52.17ZM139.302 47.614V47.954C139.302 49.2347 138.979 50.2603 138.333 51.031C137.698 51.7903 136.791 52.17 135.613 52.17C134.445 52.17 133.539 51.7903 132.893 51.031C132.258 50.2603 131.941 49.2347 131.941 47.954V47.614C131.941 46.3447 132.258 45.3303 132.893 44.571C133.527 43.8003 134.434 43.415 135.613 43.415C136.791 43.415 137.698 43.8003 138.333 44.571C138.979 45.3303 139.302 46.3447 139.302 47.614ZM137.772 47.274C137.772 46.0953 137.585 45.251 137.211 44.741C136.848 44.2197 136.315 43.959 135.613 43.959C134.921 43.959 134.389 44.2197 134.015 44.741C133.652 45.251 133.471 46.0953 133.471 47.274V48.294C133.471 49.484 133.652 50.3397 134.015 50.861C134.389 51.371 134.921 51.626 135.613 51.626C136.315 51.626 136.848 51.371 137.211 50.861C137.585 50.3397 137.772 49.484 137.772 48.294V47.274ZM149.734 51.575V52H147.116V50.657C146.764 51.1783 146.373 51.5637 145.943 51.813C145.523 52.051 145.053 52.17 144.532 52.17C143.557 52.17 142.798 51.8073 142.254 51.082C141.721 50.3453 141.455 49.3083 141.455 47.971V47.631C141.455 46.3503 141.766 45.3303 142.39 44.571C143.024 43.8003 143.891 43.415 144.991 43.415C145.795 43.415 146.475 43.6643 147.031 44.163V40.797C147.031 40.4003 147.014 40.168 146.98 40.1C146.946 40.032 146.838 39.9867 146.657 39.964L145.722 39.879V39.42H148.425V50.623C148.425 51.0197 148.442 51.252 148.476 51.32C148.51 51.388 148.617 51.4333 148.799 51.456L149.734 51.575ZM142.985 48.481C142.985 49.5463 143.138 50.3283 143.444 50.827C143.761 51.3257 144.197 51.575 144.753 51.575C145.115 51.575 145.489 51.4617 145.875 51.235C146.26 51.0083 146.645 50.5493 147.031 49.858V44.996C146.532 44.3273 145.88 43.993 145.076 43.993C144.35 43.993 143.818 44.2707 143.478 44.826C143.149 45.3813 142.985 46.1463 142.985 47.121V48.481ZM152.795 41.681C152.523 41.681 152.296 41.596 152.115 41.426C151.945 41.2447 151.86 41.0123 151.86 40.729C151.86 40.457 151.945 40.236 152.115 40.066C152.296 39.896 152.523 39.811 152.795 39.811C153.067 39.811 153.288 39.896 153.458 40.066C153.639 40.236 153.73 40.457 153.73 40.729C153.73 41.0123 153.639 41.2447 153.458 41.426C153.288 41.596 153.067 41.681 152.795 41.681ZM150.806 44.044V43.585H153.509V50.623C153.509 51.0197 153.526 51.252 153.56 51.32C153.594 51.388 153.702 51.4333 153.883 51.456L154.818 51.558V52H150.806V51.558L151.741 51.456C151.922 51.4333 152.03 51.388 152.064 51.32C152.098 51.252 152.115 51.0197 152.115 50.623V44.962C152.115 44.5653 152.098 44.333 152.064 44.265C152.03 44.197 151.922 44.1517 151.741 44.129L150.806 44.044ZM165.389 51.558V52H161.377V51.558L162.312 51.456C162.493 51.4333 162.601 51.388 162.635 51.32C162.669 51.252 162.686 51.0197 162.686 50.623V46.39C162.686 45.5513 162.55 44.962 162.278 44.622C162.006 44.2707 161.615 44.095 161.105 44.095C160.731 44.095 160.317 44.2083 159.864 44.435C159.411 44.6617 158.986 45.1037 158.589 45.761V50.623C158.589 51.0197 158.606 51.252 158.64 51.32C158.674 51.388 158.782 51.4333 158.963 51.456L159.898 51.558V52H155.886V51.558L156.821 51.456C157.002 51.4333 157.11 51.388 157.144 51.32C157.178 51.252 157.195 51.0197 157.195 50.623V44.962C157.195 44.5653 157.178 44.333 157.144 44.265C157.11 44.197 157.002 44.1517 156.821 44.129L155.886 44.044V43.585H158.504V44.962C158.912 44.418 159.371 44.027 159.881 43.789C160.402 43.5397 160.924 43.415 161.445 43.415C162.284 43.415 162.93 43.6757 163.383 44.197C163.848 44.707 164.08 45.4323 164.08 46.373V50.623C164.08 51.0197 164.097 51.252 164.131 51.32C164.165 51.388 164.273 51.4333 164.454 51.456L165.389 51.558ZM174.3 52.986C174.3 53.8927 173.966 54.584 173.297 55.06C172.64 55.5473 171.722 55.791 170.543 55.791C169.251 55.791 168.305 55.5643 167.704 55.111C167.104 54.669 166.792 54.108 166.769 53.428L168.027 53.173C167.982 53.7963 168.146 54.295 168.52 54.669C168.906 55.0543 169.58 55.247 170.543 55.247C171.405 55.247 172.096 55.0883 172.617 54.771C173.15 54.4537 173.416 53.989 173.416 53.377C173.416 52.9237 173.263 52.5837 172.957 52.357C172.651 52.1303 172.147 52.017 171.444 52.017H169.421C168.662 52.017 168.129 51.8583 167.823 51.541C167.517 51.2123 167.364 50.8497 167.364 50.453C167.364 50.1243 167.444 49.8183 167.602 49.535C167.772 49.2403 168.039 48.9513 168.401 48.668C167.948 48.4527 167.58 48.141 167.296 47.733C167.013 47.3137 166.871 46.8093 166.871 46.22C166.871 45.5967 167.013 45.081 167.296 44.673C167.591 44.2537 167.976 43.942 168.452 43.738C168.94 43.5227 169.478 43.415 170.067 43.415H170.356C170.98 43.415 171.535 43.5283 172.022 43.755L174.487 42.905L174.674 44.18H172.685C172.946 44.4067 173.15 44.69 173.297 45.03C173.456 45.37 173.535 45.7667 173.535 46.22C173.535 46.8207 173.388 47.3307 173.093 47.75C172.81 48.1693 172.43 48.4867 171.954 48.702C171.478 48.906 170.946 49.008 170.356 49.008H170.067C169.875 49.008 169.688 48.9967 169.506 48.974C169.325 48.9513 169.149 48.9173 168.979 48.872C168.73 49.042 168.549 49.2177 168.435 49.399C168.333 49.5803 168.282 49.7673 168.282 49.96C168.282 50.1867 168.362 50.368 168.52 50.504C168.69 50.64 168.957 50.708 169.319 50.708H171.529C172.425 50.708 173.11 50.9007 173.586 51.286C174.062 51.6713 174.3 52.238 174.3 52.986ZM170.356 48.464C170.662 48.464 170.94 48.396 171.189 48.26C171.45 48.124 171.66 47.8973 171.818 47.58C171.977 47.2513 172.056 46.798 172.056 46.22C172.056 45.6307 171.977 45.1773 171.818 44.86C171.66 44.5313 171.45 44.299 171.189 44.163C170.94 44.027 170.662 43.959 170.356 43.959H170.067C169.761 43.959 169.478 44.027 169.217 44.163C168.957 44.299 168.747 44.5313 168.588 44.86C168.43 45.1773 168.35 45.6307 168.35 46.22C168.35 46.798 168.43 47.2513 168.588 47.58C168.747 47.8973 168.957 48.124 169.217 48.26C169.478 48.396 169.761 48.464 170.067 48.464H170.356ZM178.059 51.439C178.059 51.949 177.889 52.544 177.549 53.224C177.22 53.904 176.761 54.5897 176.172 55.281L175.798 54.975C176.262 54.4083 176.597 53.887 176.801 53.411C177.005 52.9463 177.118 52.5327 177.141 52.17H177.124C176.852 52.17 176.631 52.085 176.461 51.915C176.291 51.745 176.206 51.524 176.206 51.252C176.206 50.98 176.291 50.759 176.461 50.589C176.631 50.419 176.852 50.334 177.124 50.334C177.396 50.334 177.617 50.4303 177.787 50.623C177.968 50.8043 178.059 51.0763 178.059 51.439ZM191.002 40.899V40.44H194.249V40.899L193.314 40.984C193.133 41.0067 193.025 41.0577 192.991 41.137C192.957 41.205 192.94 41.4317 192.94 41.817V52H192.107L185.919 41.562V50.623C185.919 51.0083 185.936 51.2407 185.97 51.32C186.004 51.388 186.112 51.4333 186.293 51.456L187.228 51.558V52H183.981V51.558L184.916 51.456C185.097 51.4333 185.205 51.388 185.239 51.32C185.273 51.2407 185.29 51.0083 185.29 50.623V41.817C185.29 41.4317 185.273 41.205 185.239 41.137C185.205 41.0577 185.097 41.0067 184.916 40.984L183.981 40.899V40.44H186.922L192.311 49.552V41.817C192.311 41.4317 192.294 41.205 192.26 41.137C192.226 41.0577 192.118 41.0067 191.937 40.984L191.002 40.899ZM202.457 50.062C202.253 50.8327 201.868 51.3767 201.301 51.694C200.746 52.0113 200.128 52.17 199.448 52.17C198.19 52.17 197.249 51.7903 196.626 51.031C196.003 50.2603 195.691 49.2347 195.691 47.954V47.614C195.691 46.3447 195.991 45.3303 196.592 44.571C197.193 43.8003 198.065 43.415 199.21 43.415C199.822 43.415 200.377 43.5397 200.876 43.789C201.386 44.0383 201.788 44.4067 202.083 44.894C202.389 45.3813 202.542 45.9877 202.542 46.713C202.542 47.053 202.508 47.41 202.44 47.784H197.221V48.294C197.221 49.484 197.402 50.3397 197.765 50.861C198.139 51.371 198.74 51.626 199.567 51.626C200.088 51.626 200.519 51.49 200.859 51.218C201.21 50.946 201.443 50.4757 201.556 49.807L202.457 50.062ZM199.21 43.959C198.541 43.959 198.043 44.214 197.714 44.724C197.385 45.234 197.221 46.0727 197.221 47.24H201.046V47.189C201.069 47.0417 201.086 46.9 201.097 46.764C201.108 46.6167 201.114 46.4863 201.114 46.373C201.114 45.523 200.938 44.911 200.587 44.537C200.236 44.1517 199.777 43.959 199.21 43.959ZM215.2 44.86L213.296 52H212.191L209.964 44.979L207.737 52H206.683L204.796 44.86C204.717 44.5313 204.649 44.333 204.592 44.265C204.547 44.197 204.433 44.1517 204.252 44.129L203.385 44.044V43.585H207.244V44.044L206.36 44.129C206.179 44.1517 206.077 44.197 206.054 44.265C206.043 44.333 206.082 44.5313 206.173 44.86L207.635 50.47L209.794 43.585H210.899L213.092 50.572L214.571 44.86C214.662 44.5313 214.696 44.333 214.673 44.265C214.662 44.197 214.565 44.1517 214.384 44.129L213.5 44.044V43.585H216.611V44.044L215.744 44.129C215.574 44.1517 215.461 44.197 215.404 44.265C215.359 44.333 215.291 44.5313 215.2 44.86ZM220.733 48.566L219.696 48.311C218.279 47.9483 217.571 47.1323 217.571 45.863C217.571 45.4437 217.667 45.047 217.86 44.673C218.052 44.299 218.358 43.9987 218.778 43.772C219.208 43.534 219.758 43.415 220.427 43.415C221.175 43.415 221.775 43.5397 222.229 43.789C222.682 44.0383 222.999 44.3613 223.181 44.758C223.362 45.1547 223.419 45.5853 223.351 46.05L222.025 46.288C222.161 45.5513 222.081 44.979 221.787 44.571C221.503 44.163 221.033 43.959 220.376 43.959C219.866 43.959 219.458 44.0893 219.152 44.35C218.846 44.5993 218.693 44.9677 218.693 45.455C218.693 45.8177 218.806 46.1407 219.033 46.424C219.259 46.696 219.639 46.9 220.172 47.036L221.243 47.291C221.991 47.4723 222.569 47.7613 222.977 48.158C223.396 48.5547 223.606 49.076 223.606 49.722C223.606 50.4473 223.339 51.0367 222.807 51.49C222.285 51.9433 221.537 52.17 220.563 52.17C220.098 52.17 219.645 52.102 219.203 51.966C218.772 51.8187 218.392 51.592 218.064 51.286C217.746 50.9687 217.514 50.5607 217.367 50.062L218.319 49.722C218.443 50.436 218.715 50.9347 219.135 51.218C219.554 51.5013 220.036 51.643 220.58 51.643C220.897 51.643 221.197 51.592 221.481 51.49C221.775 51.388 222.013 51.2293 222.195 51.014C222.376 50.7873 222.467 50.4983 222.467 50.147C222.467 49.7843 222.342 49.4727 222.093 49.212C221.843 48.9513 221.39 48.736 220.733 48.566ZM236.053 52.119C235.169 52.119 234.648 51.711 234.489 50.895C234.092 51.3483 233.656 51.677 233.18 51.881C232.704 52.0737 232.234 52.17 231.769 52.17C230.976 52.17 230.392 51.949 230.018 51.507C229.644 51.065 229.457 50.5323 229.457 49.909C229.457 49.2403 229.684 48.7133 230.137 48.328C230.602 47.9313 231.401 47.733 232.534 47.733H234.455V46.356C234.455 45.4493 234.296 44.826 233.979 44.486C233.673 44.1347 233.254 43.959 232.721 43.959C232.381 43.959 232.075 44.027 231.803 44.163C231.531 44.299 231.333 44.5483 231.208 44.911C231.095 45.2623 231.083 45.778 231.174 46.458L229.831 46.254C229.774 45.7213 229.842 45.2453 230.035 44.826C230.239 44.3953 230.568 44.0553 231.021 43.806C231.486 43.5453 232.064 43.415 232.755 43.415C233.582 43.415 234.217 43.5567 234.659 43.84C235.101 44.112 235.407 44.469 235.577 44.911C235.758 45.353 235.849 45.8347 235.849 46.356V50.181C235.849 50.759 235.911 51.1217 236.036 51.269C236.172 51.4163 236.319 51.49 236.478 51.49C236.58 51.49 236.688 51.4673 236.801 51.422C236.914 51.3653 237.039 51.2803 237.175 51.167L237.481 51.592C237.311 51.7393 237.107 51.864 236.869 51.966C236.642 52.068 236.37 52.119 236.053 52.119ZM232.245 51.456C232.562 51.456 232.902 51.371 233.265 51.201C233.639 51.0197 234.036 50.6627 234.455 50.13V48.277H232.721C232.086 48.277 231.622 48.4073 231.327 48.668C231.044 48.9173 230.902 49.3083 230.902 49.841C230.902 50.351 231.01 50.7477 231.225 51.031C231.452 51.3143 231.792 51.456 232.245 51.456ZM247.733 51.558V52H243.721V51.558L244.656 51.456C244.837 51.4333 244.945 51.388 244.979 51.32C245.013 51.252 245.03 51.0197 245.03 50.623V46.39C245.03 45.5513 244.894 44.962 244.622 44.622C244.35 44.2707 243.959 44.095 243.449 44.095C243.075 44.095 242.661 44.2083 242.208 44.435C241.754 44.6617 241.329 45.1037 240.933 45.761V50.623C240.933 51.0197 240.95 51.252 240.984 51.32C241.018 51.388 241.125 51.4333 241.307 51.456L242.242 51.558V52H238.23V51.558L239.165 51.456C239.346 51.4333 239.454 51.388 239.488 51.32C239.522 51.252 239.539 51.0197 239.539 50.623V44.962C239.539 44.5653 239.522 44.333 239.488 44.265C239.454 44.197 239.346 44.1517 239.165 44.129L238.23 44.044V43.585H240.848V44.962C241.256 44.418 241.715 44.027 242.225 43.789C242.746 43.5397 243.267 43.415 243.789 43.415C244.627 43.415 245.273 43.6757 245.727 44.197C246.191 44.707 246.424 45.4323 246.424 46.373V50.623C246.424 51.0197 246.441 51.252 246.475 51.32C246.509 51.388 246.616 51.4333 246.798 51.456L247.733 51.558ZM257.511 51.575V52H254.893V50.657C254.542 51.1783 254.151 51.5637 253.72 51.813C253.301 52.051 252.83 52.17 252.309 52.17C251.334 52.17 250.575 51.8073 250.031 51.082C249.498 50.3453 249.232 49.3083 249.232 47.971V47.631C249.232 46.3503 249.544 45.3303 250.167 44.571C250.802 43.8003 251.669 43.415 252.768 43.415C253.573 43.415 254.253 43.6643 254.808 44.163V40.797C254.808 40.4003 254.791 40.168 254.757 40.1C254.723 40.032 254.615 39.9867 254.434 39.964L253.499 39.879V39.42H256.202V50.623C256.202 51.0197 256.219 51.252 256.253 51.32C256.287 51.388 256.395 51.4333 256.576 51.456L257.511 51.575ZM250.762 48.481C250.762 49.5463 250.915 50.3283 251.221 50.827C251.538 51.3257 251.975 51.575 252.53 51.575C252.893 51.575 253.267 51.4617 253.652 51.235C254.037 51.0083 254.423 50.5493 254.808 49.858V44.996C254.309 44.3273 253.658 43.993 252.853 43.993C252.128 43.993 251.595 44.2707 251.255 44.826C250.926 45.3813 250.762 46.1463 250.762 47.121V48.481ZM271.768 51.558V52H267.756V51.558L268.691 51.456C268.872 51.4333 268.98 51.388 269.014 51.32C269.048 51.252 269.065 51.0197 269.065 50.623V46.39C269.065 45.5513 268.935 44.962 268.674 44.622C268.425 44.2707 268.056 44.095 267.569 44.095C267.218 44.095 266.821 44.2083 266.379 44.435C265.948 44.6617 265.535 45.098 265.138 45.744V50.623C265.138 51.0197 265.155 51.252 265.189 51.32C265.223 51.388 265.331 51.4333 265.512 51.456L266.447 51.558V52H262.435V51.558L263.37 51.456C263.551 51.4333 263.659 51.388 263.693 51.32C263.727 51.252 263.744 51.0197 263.744 50.623V44.962C263.744 44.5653 263.727 44.333 263.693 44.265C263.659 44.197 263.551 44.1517 263.37 44.129L262.435 44.044V43.585H265.053V44.962C265.45 44.4293 265.897 44.0383 266.396 43.789C266.906 43.5397 267.41 43.415 267.909 43.415C269.133 43.415 269.921 43.976 270.272 45.098C270.691 44.5087 271.156 44.0837 271.666 43.823C272.187 43.551 272.709 43.415 273.23 43.415C274.035 43.415 274.658 43.6757 275.1 44.197C275.553 44.707 275.78 45.4323 275.78 46.373V50.623C275.78 51.0197 275.797 51.252 275.831 51.32C275.865 51.388 275.973 51.4333 276.154 51.456L277.089 51.558V52H273.077V51.558L274.012 51.456C274.193 51.4333 274.301 51.388 274.335 51.32C274.369 51.252 274.386 51.0197 274.386 50.623V46.39C274.386 45.5513 274.256 44.962 273.995 44.622C273.746 44.2707 273.377 44.095 272.89 44.095C272.539 44.095 272.136 44.214 271.683 44.452C271.241 44.6787 270.822 45.1263 270.425 45.795C270.436 45.8857 270.442 45.982 270.442 46.084C270.453 46.1747 270.459 46.271 270.459 46.373V50.623C270.459 51.0197 270.476 51.252 270.51 51.32C270.544 51.388 270.652 51.4333 270.833 51.456L271.768 51.558ZM285.894 47.614V47.954C285.894 49.2347 285.571 50.2603 284.925 51.031C284.29 51.7903 283.383 52.17 282.205 52.17C281.037 52.17 280.131 51.7903 279.485 51.031C278.85 50.2603 278.533 49.2347 278.533 47.954V47.614C278.533 46.3447 278.85 45.3303 279.485 44.571C280.119 43.8003 281.026 43.415 282.205 43.415C283.383 43.415 284.29 43.8003 284.925 44.571C285.571 45.3303 285.894 46.3447 285.894 47.614ZM284.364 47.274C284.364 46.0953 284.177 45.251 283.803 44.741C283.44 44.2197 282.907 43.959 282.205 43.959C281.513 43.959 280.981 44.2197 280.607 44.741C280.244 45.251 280.063 46.0953 280.063 47.274V48.294C280.063 49.484 280.244 50.3397 280.607 50.861C280.981 51.371 281.513 51.626 282.205 51.626C282.907 51.626 283.44 51.371 283.803 50.861C284.177 50.3397 284.364 49.484 284.364 48.294V47.274ZM287.536 44.044V43.585H290.154V44.945C290.551 44.4123 290.948 44.027 291.344 43.789C291.752 43.5397 292.166 43.415 292.585 43.415C292.948 43.415 293.288 43.5227 293.605 43.738C293.923 43.9533 294.189 44.299 294.404 44.775L293.299 45.438C293.129 45.03 292.937 44.7467 292.721 44.588C292.506 44.4293 292.268 44.35 292.007 44.35C291.724 44.35 291.441 44.4407 291.157 44.622C290.885 44.8033 290.579 45.1433 290.239 45.642V50.623C290.239 51.0197 290.256 51.2577 290.29 51.337C290.324 51.405 290.432 51.4447 290.613 51.456L291.888 51.558V52H287.536V51.558L288.471 51.456C288.653 51.4333 288.76 51.388 288.794 51.32C288.828 51.252 288.845 51.0197 288.845 50.623V44.962C288.845 44.5653 288.828 44.333 288.794 44.265C288.76 44.197 288.653 44.1517 288.471 44.129L287.536 44.044ZM302.15 50.062C301.946 50.8327 301.56 51.3767 300.994 51.694C300.438 52.0113 299.821 52.17 299.141 52.17C297.883 52.17 296.942 51.7903 296.319 51.031C295.695 50.2603 295.384 49.2347 295.384 47.954V47.614C295.384 46.3447 295.684 45.3303 296.285 44.571C296.885 43.8003 297.758 43.415 298.903 43.415C299.515 43.415 300.07 43.5397 300.569 43.789C301.079 44.0383 301.481 44.4067 301.776 44.894C302.082 45.3813 302.235 45.9877 302.235 46.713C302.235 47.053 302.201 47.41 302.133 47.784H296.914V48.294C296.914 49.484 297.095 50.3397 297.458 50.861C297.832 51.371 298.432 51.626 299.26 51.626C299.781 51.626 300.212 51.49 300.552 51.218C300.903 50.946 301.135 50.4757 301.249 49.807L302.15 50.062ZM298.903 43.959C298.234 43.959 297.735 44.214 297.407 44.724C297.078 45.234 296.914 46.0727 296.914 47.24H300.739V47.189C300.761 47.0417 300.778 46.9 300.79 46.764C300.801 46.6167 300.807 46.4863 300.807 46.373C300.807 45.523 300.631 44.911 300.28 44.537C299.928 44.1517 299.469 43.959 298.903 43.959Z" fill="#696969"/>
</svg>
